<?xml version="1.0" encoding="utf-8"?>
<!-- Generator: Adobe Illustrator 16.0.0, SVG Export Plug-In . SVG Version: 6.00 Build 0)  -->
<!DOCTYPE svg PUBLIC "-//W3C//DTD SVG 1.1//EN" "http://www.w3.org/Graphics/SVG/1.1/DTD/svg11.dtd">
<svg version="1.1" id="Layer_1" xmlns="http://www.w3.org/2000/svg" xmlns:xlink="http://www.w3.org/1999/xlink" x="0px" y="0px"
	 width="800px" height="600px" viewBox="0 0 800 600" enable-background="new 0 0 800 600" xml:space="preserve">
<path fill="#D64A36" d="M209.185,218.85c0,0,13.395-17.723,34.859-28.21c1.967-0.64,3.262-3.936-2.39-3.936s-51.181,0-51.181,0
	s0-61.525,0-67.53c0-6.004-3.722-6.269-10.776-0.103c-5.335,4.342-33.541,28.589-33.541,28.589v39.043h-29.867v32.146h29.867v66.309
	c0,48.258,27.683,86.199,55.18,100.47c7.244-5.938,33.608-28.808,33.608-28.808l-11.629-8.167
	c-19.866-14.097-32.842-37.282-32.842-63.496V218.85H209.185z"/>
<g>
	<path fill="#D64A36" d="M606.321,197.721c-13.804,0-26.767,3.582-38.019,9.859l6.29-5.421c0,0,0.876-4.438-4.069-4.438
		c-4.947,0-48.194,0-48.194,0l-43.387,37.387V117.52c0,0-2.164-5.761-7.444-1.596c-5.281,4.166-37.345,31.573-37.345,31.573v50.224
		h-13.686l-43.374,37.382V117.52c0,0-2.162-5.761-7.444-1.596c-5.281,4.166-37.343,32.279-37.343,32.279v70.998
		c-13.971-13.171-32.799-21.246-53.51-21.246c-43.09,0-78.025,34.923-78.025,78.021c0,43.082,34.936,78.015,78.025,78.015
		c20.711,0,39.539-8.075,53.51-21.247v21.247h44.787v-47.014l43.374,47.014h13.686h43.732h1.057v-47.016l43.387,47.016
		c0,0,43.449,0,50.432,0s2.726-4.576,2.726-4.576l-2.802-3.014c10.188,4.864,21.593,7.59,33.637,7.59
		c43.146,0,78.133-34.98,78.133-78.137C684.454,232.704,649.468,197.721,606.321,197.721z M245.938,275.976
		c0-18.15,14.714-32.854,32.859-32.854c18.136,0,32.85,14.705,32.85,32.854c0,18.142-14.714,32.842-32.85,32.842
		C260.652,308.818,245.938,294.118,245.938,275.976z M400.361,264.534c3.113-2.683,33.792-29.124,33.792-29.124v71.55
		c0,0-30.707-33.024-33.82-36.373C397.22,267.24,397.249,267.216,400.361,264.534z M502.211,264.534
		c3.082-2.656,42.227-36.388,42.227-36.388c-10.19,13.198-16.257,29.744-16.257,47.708c0,10.032,1.893,19.621,5.336,28.432
		c0,0-28.432-30.571-31.441-33.806C499.066,267.244,499.128,267.19,502.211,264.534z M606.321,308.75
		c-18.18,0-32.901-14.719-32.901-32.896c0-18.166,14.722-32.895,32.901-32.895c18.158,0,32.89,14.729,32.89,32.895
		C639.211,294.031,624.479,308.75,606.321,308.75z"/>
	<g>
		<g>
			<path fill="#58595B" d="M311.007,376.012v85.774h-4.565v-85.774H311.007z"/>
			<path fill="#58595B" d="M365.067,450.374c0,3.604,0,7.447,4.084,7.447c0.841,0,1.922-0.12,3.364-0.36v3.845
				c-1.322,0.24-2.523,0.48-3.724,0.48c-7.208,0-8.29-3.965-8.29-9.01v-3.244h-0.24c-2.883,7.328-11.172,13.695-22.945,13.695
				c-11.653,0-20.663-4.444-20.663-17.419c0-14.416,12.494-17.419,22.705-18.26c20.422-1.442,21.263-2.764,21.263-12.854
				c0-2.763-3.123-12.134-17.179-12.134c-11.052,0-18.38,5.767-18.981,16.458h-4.565c0.601-13.574,9.01-20.422,23.546-20.422
				c10.812,0,21.624,3.363,21.624,16.098V450.374z M360.502,426.707c-3.604,4.085-13.455,3.604-22.344,4.806
				c-10.812,1.201-16.939,5.046-16.939,14.296c0,7.448,5.406,13.455,16.218,13.455c20.783,0,23.065-17.78,23.065-21.023V426.707z"/>
			<path fill="#58595B" d="M374.68,376.012h4.565v37.121h0.24c3.484-9.611,13.455-14.536,23.426-14.536
				c18.14,0,26.789,13.695,26.789,30.874c0,29.433-18.26,33.757-26.789,33.757c-16.218,0-22.465-12.013-23.426-15.257h-0.24v13.815
				h-4.565V376.012z M425.136,429.471c0-13.695-7.448-26.91-22.225-26.91c-16.098,0-23.546,11.413-23.546,26.91
				c0,15.137,6.728,29.793,23.546,29.793C419.129,459.264,425.136,443.646,425.136,429.471z"/>
			<path fill="#58595B" d="M436.55,441.243c0.721,11.413,9.25,18.021,20.423,18.021c8.049,0,19.581-2.403,19.581-13.095
				c0-10.451-10.571-12.014-21.143-14.176c-10.692-2.162-21.264-4.926-21.264-17.539c0-12.254,11.893-15.857,22.345-15.857
				c13.094,0,22.825,5.646,22.825,19.701h-4.565c-0.12-11.172-7.929-15.737-18.26-15.737c-8.409,0-17.78,3.124-17.78,11.894
				c0,9.851,10.572,11.412,20.543,13.575c12.254,2.282,21.864,5.165,21.864,18.14c0,13.335-13.335,17.059-24.146,17.059
				c-14.056,0-24.627-7.568-24.987-21.984H436.55z"/>
		</g>
	</g>
</g>
</svg>
