<?xml version="1.0" encoding="utf-8"?>
<!-- Generator: Adobe Illustrator 16.0.0, SVG Export Plug-In . SVG Version: 6.00 Build 0)  -->
<!DOCTYPE svg PUBLIC "-//W3C//DTD SVG 1.1//EN" "http://www.w3.org/Graphics/SVG/1.1/DTD/svg11.dtd">
<svg version="1.1" id="Capa_1" xmlns="http://www.w3.org/2000/svg" xmlns:xlink="http://www.w3.org/1999/xlink" x="0px" y="0px"
	 width="50px" height="50px" viewBox="0 0 50 50" enable-background="new 0 0 50 50" xml:space="preserve">
<path d="M83.757,9.408c-1.021,0.451-2.111,0.756-3.261,0.896c1.172-0.704,2.076-1.818,2.499-3.144
	c-1.099,0.652-2.312,1.126-3.608,1.378c-1.038-1.108-2.517-1.8-4.146-1.8c-3.138,0-5.68,2.546-5.68,5.684
	c0,0.446,0.047,0.881,0.146,1.298c-4.721-0.236-8.91-2.499-11.707-5.942c-0.487,0.838-0.77,1.818-0.77,2.855
	c0,1.971,1.01,3.714,2.535,4.734c-0.939-0.024-1.818-0.282-2.581-0.71v0.071c0,2.756,1.959,5.051,4.558,5.572
	c-0.476,0.129-0.98,0.199-1.496,0.199c-0.363,0-0.721-0.037-1.066-0.107c0.721,2.261,2.82,3.902,5.308,3.95
	c-1.941,1.524-4.394,2.433-7.057,2.433c-0.458,0-0.909-0.03-1.354-0.081c2.504,1.63,5.49,2.568,8.692,2.568
	c10.457,0,16.172-8.663,16.172-16.177c0-0.247-0.005-0.493-0.017-0.733C82.032,11.548,82.995,10.551,83.757,9.408z"/>
<circle fill="none" stroke="#000000" stroke-miterlimit="10" cx="25" cy="25.06" r="23.262"/>
<path d="M21.711,38.118V25.94h-3.677v-4.486h3.677v-3.316c0-3.974,2.756-6.137,6.305-6.137c1.698,0,3.524,0.128,3.949,0.184v4.15
	h-2.828c-1.931,0-2.299,0.913-2.299,2.259v2.86h4.598l-0.601,4.486h-3.997v12.178"/>
</svg>
