<?xml version="1.0" encoding="utf-8"?>
<!-- Generator: Adobe Illustrator 19.0.0, SVG Export Plug-In . SVG Version: 6.00 Build 0)  -->
<svg version="1.1" id="Layer_1" xmlns="http://www.w3.org/2000/svg" xmlns:xlink="http://www.w3.org/1999/xlink" x="0px" y="0px"
	 viewBox="384 -384 1024 1024" style="enable-background:new 384 -384 1024 1024;" xml:space="preserve">
<style type="text/css">
	.st0{fill:#88989D;}
	.st1{fill:#70D477;}
</style>
<g>
	<path class="st0" d="M546.3,545c-41.7,0-75.7-34.5-75.7-76.9s34-76.8,75.7-76.8s75.7,34.5,75.7,76.8C622,510.5,588,545,546.3,545z
		 M546.3,403.5c-35,0-63.4,29-63.4,64.6s28.4,64.6,63.4,64.6s63.4-29,63.4-64.6S581.3,403.5,546.3,403.5z"/>
	<path class="st0" d="M736.6,545c-39.9,0-72.4-34.2-72.4-76.3c0-0.6,0-1.1,0-1.7c0.8-41.2,33.3-74.7,72.4-74.7
		c39.9,0,72.4,34.2,72.4,76.3v6.1H676.7c2.9,32.5,28.6,57.9,59.8,57.9c19.1,0,37.1-7.3,48.2-19.4l9.1,8.2
		C780.5,536.2,759.1,545,736.6,545z M676.7,462.5h119.7c-2.9-32.5-28.6-57.9-59.8-57.9C705.6,404.5,679.6,430.1,676.7,462.5z"/>
	<path class="st0" d="M622,542.4h-12.3V330.5H622V542.4z"/>
	<path class="st0" d="M882.1,554.7l-65.7-157l11.3-4.7l54.4,130l54.7-130l11.3,4.8L882.1,554.7z"/>
	<path class="st0" d="M1192.7,542.2c0,0-0.1-77.8-0.1-79.2c0-1.2,0-2.6,0-4.1c0.3-11.9,0.8-34.2-13.4-44.9
		c-35.2-26.7-79.6,8.2-80,8.6l-7.7-9.6c0.5-0.4,52.3-41.2,95.1-8.8c19.1,14.5,18.5,41.8,18.2,55c0,1.4-0.1,2.7-0.1,3.8
		c0,1.4,0.1,79.2,0.1,79.2H1192.7z"/>
	<path class="st0" d="M1137.8,545.2c-2.1,0-4.2-0.1-6.4-0.2c-18.1-1.4-31.6-7.4-40.3-17.8c-11.3-13.5-9.9-29.4-9.8-30.1
		c2.1-32.3,37.6-39.6,56.1-38.8h61.5v12.3h-61.7c-1.9-0.1-41.8-1.2-43.7,27.5c0,0.3-0.9,11.9,7.1,21.3c6.5,7.7,17.2,12.2,31.8,13.3
		c16.6,1.3,31-3.2,42.7-13.3c12.4-10.7,17.4-24.2,17.6-26.6l12.3,0.1c0,6.6-6.9,22.1-19.9,34.2
		C1175.8,535.5,1160.4,545.2,1137.8,545.2z"/>
	<path class="st0" d="M1009.4,546.5c-0.8,0-1.7,0-2.5,0c-37.5-1.6-54.8-21.5-55.5-22.4l9.4-7.9c0.6,0.6,14.9,16.7,46.7,18
		c18.2,0.7,38.3-8.5,40.4-25.4c2.7-21.3-18.7-28.6-19.6-28.9c-0.1,0-29.1-9.9-38.3-13.1c-5.3-1.9-23-9.1-29-25
		c-3.6-9.7-2.2-20.4,4.4-31.7c6.7-11.7,22.8-18.9,42.1-18.9c0.3,0,0.6,0,0.8,0c21.2,0.2,41.1,10.4,42,10.9l-5.7,10.9
		c-0.2-0.1-18.2-9.3-36.4-9.5c-14.7-0.1-27.7,5-32.1,12.7c-4.6,8-5.8,15.2-3.5,21.3c4.2,11.2,18.7,16.7,21.5,17.7
		c9.2,3.2,38.1,13.1,38.1,13.1c10.9,3.5,31,16.8,27.9,42C1057.1,533.4,1032.5,546.5,1009.4,546.5z"/>
	<path class="st0" d="M1268,542.2h-12.3V395.3h12.3V542.2z"/>
	<path class="st0" d="M1268,455.1h-12.3c0-0.6,0.1-13.9,9.8-30.8c19.6-34.2,54.4-32.8,55.9-32.7l-0.6,12.2
		c-1.2-0.1-28.9-1-44.6,26.5C1268.2,444.3,1268,455,1268,455.1z"/>
</g>
<g>
	<path class="st1" d="M711.8-296.2c89.6,15.1,334,74.8,465.9,287.7c1.6,2.5,0.4,5.8-2.4,6.8c-5.6,2-48,9-61.6,11.7
		c-3,0.6-5.9-0.9-7.5-3.6c-30.6-49-86.1-145.6-199.2-212.2c-2.8-1.7-5.5,2.3-3,4.3c71.1,57.5,114.3,94.9,177.6,207.6
		c2.2,3.9-0.2,8.7-4.5,9.4c-9.8,1.6-28.7,3.9-41.6,4.5c-11.6,0.6-33.2-0.9-42.8-1.7c-2.6-0.2-4.9-1.8-5.9-4.2
		C944.7-85.7,916.7-155.5,809.1-227c-3.2-2.2-6.6,2.5-3.5,4.9c18.9,14.6,47.5,34.8,81.6,85.6c32.6,48.6,56.6,97,71.3,144.4
		c1.4,4.5-2,9.1-6.7,9.1c-10.3,0-27.2-0.4-42.1-2.5C895,12.4,883,8.1,877.6,6c-1.9-0.7-3.4-2.3-4-4.2
		c-8.4-24.6-69.2-195.5-169.1-282.3C697.6-286.5,702.9-297.7,711.8-296.2z"/>
	<path class="st1" d="M1178.8,29.6c-58.3,69.7-233.3,250.5-483.6,256.9c-2.9,0.1-5.2-2.6-4.7-5.5c1.1-5.8,16.4-46,21.1-59.1
		c1-2.9,3.8-4.6,6.9-4.7c57.8-1.7,169.2-0.8,283.7-64.9c2.8-1.6,0.8-5.9-2.2-4.8c-85.5,32.4-139.7,50.8-268.9,48.5
		c-4.4-0.1-7.4-4.5-5.8-8.7c3.6-9.2,11.2-26.8,17.1-38.2c5.3-10.3,17.6-28.2,23.1-36.1c1.5-2.1,4.1-3.3,6.6-2.9
		c107.4,14.1,181.9,25.2,297.9-31.6c3.5-1.7,1.2-7-2.4-5.5c-22.2,8.9-54,23.4-115.1,27.2c-58.5,3.6-112.3-0.1-160.6-11.4
		c-4.6-1.1-6.8-6.3-4.4-10.4c5.2-8.9,14.1-23.3,23.4-35.1c9.1-11.5,18.9-19.8,23.4-23.4c1.6-1.3,3.7-1.8,5.7-1.3
		c25.4,5.2,203.7,39,329.1-3.4C1177.6,12.3,1184.6,22.6,1178.8,29.6z"/>
	<path class="st1" d="M656.6,269.3c-30.3-85.6-96.8-328.3,25.2-547c1.4-2.6,4.9-3.2,7.1-1.2c4.4,3.9,31.2,37.6,40.1,48.2
		c2,2.4,2,5.6,0.5,8.3c-28,50.6-85.5,146-88.7,277.2c-0.1,3.3,4.7,3.7,5.2,0.5c15.7-90.1,27.5-146.1,95.2-256.1
		c2.3-3.8,7.7-4.1,10.4-0.6c6.1,7.8,17.3,23.3,24.2,34.2c6.1,9.8,15.3,29.5,19.3,38.2c1.1,2.4,0.7,5.1-0.9,7.2
		C727.5-36.5,680.1,21.9,669.8,150.7c-0.3,3.9,5.4,4.6,6,0.7c3.6-23.6,7.4-58.4,35.2-112.9c26.7-52.2,57.3-96.6,91.6-132.4
		c3.3-3.4,8.9-2.7,11.2,1.5c5,9,12.9,24,18.3,38c5.3,13.7,7.4,26.3,8.2,32.1c0.3,2-0.4,4.1-1.7,5.6
		c-17.4,19.3-137.3,155.4-164.7,285C672,277.1,659.6,277.9,656.6,269.3z"/>
</g>
</svg>
